HIERARCHY
ROOT Hips
{
    OFFSET 0.000000 0.000000 0.000000
    CHANNELS 6 Xposition Yposition Zposition Zrotation Xrotation Yrotation
    JOINT Spine
    {
        OFFSET -0.000000 7.236184 0.000000
        CHANNELS 3 Zrotation Xrotation Yrotation
        JOINT Spine1
        {
            OFFSET -0.000000 20.420147 0.000000
            CHANNELS 3 Zrotation Xrotation Yrotation
            JOINT Neck
            {
                OFFSET -0.000000 20.336288 1.848754
                CHANNELS 3 Zrotation Xrotation Yrotation
                JOINT Head
                {
                    OFFSET -0.000000 12.354461 -1.764923
                    CHANNELS 3 Zrotation Xrotation Yrotation
                    End Site
                    {
                        OFFSET -0.000000 22.061537 0.000000
                    }
                }
            }
            JOINT LeftShoulder
            {
                OFFSET 3.573296 18.396038 -0.314103
                CHANNELS 3 Zrotation Xrotation Yrotation
                JOINT LeftArm
                {
                    OFFSET 10.880760 0.000000 0.000000
                    CHANNELS 3 Zrotation Xrotation Yrotation
                    JOINT LeftForeArm
                    {
                        OFFSET 27.185530 0.000000 0.000000
                        CHANNELS 3 Zrotation Xrotation Yrotation
                        JOINT LeftHand
                        {
                            OFFSET 27.825975 0.000000 0.000000
                            CHANNELS 3 Zrotation Xrotation Yrotation
                            End Site
                            {
                                OFFSET 13.236923 0.000000 0.000000
                            }
                        }
                    }
                }
            }
            JOINT RightShoulder
            {
                OFFSET -3.474926 18.396038 -0.314103
                CHANNELS 3 Zrotation Xrotation Yrotation
                JOINT RightArm
                {
                    OFFSET -10.880760 0.000000 0.000000
                    CHANNELS 3 Zrotation Xrotation Yrotation
                    JOINT RightForeArm
                    {
                        OFFSET -27.185530 0.000000 0.000000
                        CHANNELS 3 Zrotation Xrotation Yrotation
                        JOINT RightHand
                        {
                            OFFSET -27.825975 0.000000 0.000000
                            CHANNELS 3 Zrotation Xrotation Yrotation
                            End Site
                            {
                                OFFSET -13.236923 0.000000 0.000000
                            }
                        }
                    }
                }
            }
        }
    }
    JOINT LeftUpLeg
    {
        OFFSET 8.824615 0.000000 0.000000
        CHANNELS 3 Zrotation Xrotation Yrotation
        JOINT LeftLeg
        {
            OFFSET -0.000000 -35.111282 0.000000
            CHANNELS 3 Zrotation Xrotation Yrotation
            JOINT LeftFoot
            {
                OFFSET -0.000000 -42.324711 0.000000
                CHANNELS 3 Zrotation Xrotation Yrotation
                JOINT LeftToeBase
                {
                    OFFSET -0.000000 -5.735999 13.236923
                    CHANNELS 3 Zrotation Xrotation Yrotation
                    End Site
                    {
                        OFFSET -0.000000 0.000000 3.529846
                    }
                }
            }
        }
    }
    JOINT RightUpLeg
    {
        OFFSET -8.824615 0.000000 0.000000
        CHANNELS 3 Zrotation Xrotation Yrotation
        JOINT RightLeg
        {
            OFFSET -0.000000 -35.111282 0.000000
            CHANNELS 3 Zrotation Xrotation Yrotation
            JOINT RightFoot
            {
                OFFSET -0.000000 -42.324711 0.000000
                CHANNELS 3 Zrotation Xrotation Yrotation
                JOINT RightToeBase
                {
                    OFFSET -0.000000 -5.735999 13.236923
                    CHANNELS 3 Zrotation Xrotation Yrotation
                    End Site
                    {
                        OFFSET -0.000000 0.000000 3.529846
                    }
                }
            }
        }
    }
}
MOTION
Frames:    7
Frame Time:    0.008333
-1.564295    81.930206    94.617805    1.315347    -6.227082    -179.330444    0.234256    -16.646034    0.638210    -3.186147    7.704577    0.818629    5.020684    6.418589    -5.652474    7.472101    7.636650    -5.773870    1.073427    17.801367    -4.032061    -43.020660    47.794407    -38.771694    -2.217703    -4.045951    -17.304983    16.535908    -3.810764    3.943487    3.185442    13.973295    -2.527445    51.686523    -12.267567    22.371071    -50.220165    -44.600197    88.048958    -28.034693    7.104673    -4.366019    5.133765    -2.774484    -0.281407    -2.491725    6.119443    3.190952    -0.201648    -10.432872    -9.671600    -1.004842    1.734940    1.110406    -1.771034    -0.916269    0.625251    12.072594    9.129940    -11.592118    0.000000    0.000000    0.000000    0.000000    0.000000    0.000000    
-1.569479    81.930069    94.615158    1.310317    -6.222385    -179.315720    0.259013    -16.655109    0.652453    -3.218024    7.708714    0.831513    5.011083    6.427746    -5.686532    7.525856    7.618166    -5.802771    1.072404    17.796701    -4.028868    -42.986046    47.794380    -38.809219    -2.213965    -4.037136    -17.298210    16.504255    -3.805139    3.924248    3.137887    13.908084    -2.474677    51.562721    -12.265028    22.439817    -50.168766    -44.560303    88.056496    -28.120886    7.090980    -4.343221    5.125259    -2.768197    -0.294082    -2.492829    6.115178    3.182210    -0.200149    -10.432787    -9.666506    -1.004562    1.735970    1.110094    -1.779132    -0.908147    0.616865    12.072422    9.129860    -11.599088    0.000000    0.000000    0.000000    0.000000    0.000000    0.000000    
-1.574415    81.929901    94.612518    1.305540    -6.217751    -179.300125    0.282776    -16.664293    0.666453    -3.248963    7.712898    0.844208    5.001701    6.436636    -5.720449    7.579335    7.600314    -5.831609    1.071252    17.792150    -4.025170    -42.951836    47.794128    -38.846661    -2.210951    -4.028451    -17.291933    16.474205    -3.799614    3.905596    3.091955    13.844132    -2.422750    51.442783    -12.262849    22.508486    -50.119694    -44.520657    88.061752    -28.202663    7.077517    -4.320263    5.117164    -2.762202    -0.306687    -2.493914    6.111012    3.172910    -0.198702    -10.432542    -9.661612    -1.004219    1.736984    1.109713    -1.786785    -0.900022    0.608218    12.072257    9.129742    -11.606512    0.000000    0.000000    0.000000    0.000000    0.000000    0.000000    
-1.578909    81.929710    94.609848    1.301275    -6.213120    -179.282822    0.304922    -16.673658    0.680046    -3.278400    7.717163    0.856620    4.992008    6.445435    -5.754433    7.633848    7.583232    -5.860453    1.070081    17.787502    -4.020736    -42.918854    47.793629    -38.883663    -2.209152    -4.020002    -17.286554    16.446783    -3.794250    3.888093    3.048255    13.782163    -2.371812    51.329746    -12.261527    22.577776    -50.074902    -44.481953    88.063774    -28.275585    7.065119    -4.297587    5.109890    -2.756528    -0.319405    -2.495002    6.106929    3.162830    -0.197148    -10.432085    -9.657203    -1.003754    1.738052    1.109197    -1.793706    -0.891546    0.599338    12.072397    9.129280    -11.614331    0.000000    0.000000    0.000000    0.000000    0.000000    0.000000    
-1.582740    81.929489    94.607147    1.297788    -6.208456    -179.263489    0.324706    -16.683144    0.693057    -3.305521    7.721550    0.868583    4.983693    6.453608    -5.787889    7.686144    7.567735    -5.889156    1.068921    17.782982    -4.015273    -42.887684    47.792671    -38.919922    -2.209039    -4.011878    -17.282471    16.423344    -3.789143    3.872178    3.008246    13.723611    -2.322924    51.227295    -12.261733    22.647690    -50.036110    -44.444630    88.061569    -28.335701    7.054474    -4.275578    5.103932    -2.751273    -0.332118    -2.496220    6.103050    3.151547    -0.195633    -10.431408    -9.653242    -1.003195    1.739224    1.108578    -1.799320    -0.882789    0.589880    12.072512    9.128611    -11.623092    0.000000    0.000000    0.000000    0.000000    0.000000    0.000000    
-1.585837    81.929214    94.604439    1.295057    -6.203747    -179.241714    0.341679    -16.692842    0.705280    -3.329990    7.726135    0.880195    4.974844    6.461515    -5.821270    7.739660    7.553695    -5.917735    1.067258    17.778164    -4.008563    -42.858418    47.791454    -38.954880    -2.211029    -4.004065    -17.279959    16.404806    -3.784256    3.857971    2.972195    13.668597    -2.276132    51.136909    -12.264154    22.719152    -50.003731    -44.408398    88.055046    -28.382610    7.046264    -4.253577    5.099230    -2.746573    -0.344894    -2.497407    6.099533    3.139009    -0.194065    -10.430550    -9.649945    -1.002590    1.740598    1.107906    -1.803760    -0.873596    0.579836    12.072952    9.127573    -11.632519    0.000000    0.000000    0.000000    0.000000    0.000000    0.000000    
-1.588179    81.928886    94.601654    1.292967    -6.198945    -179.217255    0.355733    -16.702984    0.717010    -3.352006    7.731099    0.891452    4.966780    6.468719    -5.854646    7.792501    7.541800    -5.946604    1.065436    17.773436    -3.999895    -42.830296    47.789963    -38.989815    -2.215350    -3.996552    -17.279148    16.391178    -3.779654    3.845484    2.939784    13.617175    -2.231436    51.059528    -12.269401    22.793905    -49.977715    -44.372559    88.043709    -28.417242    7.040904    -4.231222    5.095782    -2.742313    -0.358005    -2.498760    6.096232    3.124947    -0.192491    -10.429473    -9.647079    -1.001958    1.741854    1.107204    -1.807106    -0.863898    0.568802    12.073675    9.126314    -11.642683    0.000000    0.000000    0.000000    0.000000    0.000000    0.000000    
